<?xml version="1.0" encoding="UTF-8" standalone="no"?>
<!DOCTYPE svg PUBLIC "-//W3C//DTD SVG 1.1//EN" "http://www.w3.org/Graphics/SVG/1.1/DTD/svg11.dtd">
<svg width="100%" height="100%" viewBox="0 0 256 256" version="1.1" xmlns="http://www.w3.org/2000/svg" xmlns:xlink="http://www.w3.org/1999/xlink" xml:space="preserve" xmlns:serif="http://www.serif.com/" style="fill-rule:evenodd;clip-rule:evenodd;stroke-linejoin:round;stroke-miterlimit:2;">
    <rect id="画板1" x="0" y="0" width="256" height="256" style="fill:none;"/>
    <g id="画板11" serif:id="画板1">
        <g transform="matrix(0.907351,0,0,0.907351,-337.89,-154.235)">
            <g id="logo_color">
                <g transform="matrix(0.490184,0,0,0.490184,261.026,158.503)">
                    <path d="M481.4,261.807L438.881,286.355C424.255,294.799 405.524,289.78 397.08,275.154C388.635,260.528 393.654,241.797 408.28,233.353L496.7,182.303C506.168,176.837 517.833,176.837 527.301,182.303C536.769,187.77 542.601,197.872 542.601,208.805L542.601,359.999L585.119,335.451C599.746,327.006 618.476,332.025 626.921,346.651C635.365,361.278 630.347,380.008 615.72,388.453L527.301,439.502C517.833,444.968 506.168,444.968 496.7,439.502C487.232,434.036 481.4,423.934 481.4,413.001L481.4,261.807Z" style="fill:white;"/>
                </g>
                <g transform="matrix(0.784244,0,0,0.784244,55.3939,31.0313)">
                    <path d="M591.788,185.171C585.87,181.755 578.579,181.755 572.661,185.171L438.313,262.738C432.395,266.154 428.749,272.468 428.749,279.302L428.749,434.434C428.749,441.267 432.395,447.581 438.313,450.998L572.661,528.564C578.579,531.981 585.87,531.981 591.788,528.564L726.136,450.998C732.054,447.581 735.7,441.267 735.7,434.434L735.7,279.302C735.7,272.468 732.054,266.154 726.136,262.738L591.788,185.171ZM467.003,290.345L467.003,423.391L582.224,489.914L697.446,423.391L697.446,290.345L582.224,223.821L467.003,290.345Z" style="fill:white;"/>
                </g>
            </g>
        </g>
    </g>
</svg>
