<svg class="icon" viewBox="0 0 1024 1024" xmlns="http://www.w3.org/2000/svg" width="200" height="200"><path d="M978.64 421.342l-53.763 16.99c-14.2 5.705-31.07-2.79-36.773-16.99-5.704-14.2 2.791-31.07 16.99-36.773l53.764-16.99c14.2-5.705 31.07 2.79 36.773 16.99 5.583 16.99-2.912 33.982-16.99 36.773zm-859.856-42.477c14.2 5.704 22.574 19.782 16.99 36.773-5.703 11.287-19.781 19.782-36.772 16.99l-53.764-16.99c-14.2-5.704-22.573-19.782-16.99-36.773 5.703-14.2 19.781-22.574 36.772-16.991l53.764 16.99zm653.297-243.212c8.495-11.286 25.486-14.199 39.564-5.704 11.287 8.496 14.078 25.487 5.704 39.565l-33.981 45.268c-8.496 11.287-25.487 14.2-39.565 5.704-11.286-8.495-14.078-28.277-5.704-39.564l33.982-45.269zm-528.9 76.338l-33.982-48.06c-8.495-11.287-5.704-28.278 5.704-39.564 14.2-8.496 31.07-5.704 39.565 8.495l33.981 45.268c8.496 11.287 5.704 31.07-5.704 39.565-14.078 8.495-31.069 5.704-39.564-5.704zm243.211-96.12V59.316c0-16.99 11.287-28.277 28.278-28.277s28.278 11.286 28.278 28.277v56.555c0 16.991-11.287 28.278-28.278 28.278-16.87 0-28.278-11.287-28.278-28.278zm311.175 424.285v282.897H231.894V540.156c0-155.587 127.31-282.897 282.897-282.897 155.466 0 282.776 127.31 282.776 282.897zM175.34 936.164v-56.556h678.783v56.556c0 31.068-25.486 56.555-56.555 56.555H231.894c-31.069 0-56.555-25.487-56.555-56.555zm0 0"/></svg>
