<svg class="icon" viewBox="0 0 1024 1024" xmlns="http://www.w3.org/2000/svg"><path d="M111.713 397.813l13.59 55.16L78.137 625.12c-1.421 4.974-2.133 9.594-2.133 13.856 0 11.192 5.24 19.186 15.723 23.983l9.328 4.263c5.861 2.665 8.794 7.105 8.794 13.325 0 8.882-6.485 13.325-19.453 13.325H22.709c-6.574 0-11.776-1.37-15.583-4.137-3.832-2.74-5.735-6.522-5.735-11.32 0-5.151 3.908-9.415 11.725-12.79 7.284-3.197 12.664-6.078 16.115-8.653 3.477-2.576 6.802-6.091 9.999-10.533 4.974-7.284 9.06-16.966 12.257-29.045l60.226-219.578zm18.387-67.685h107.39l74.081 313.111c1.421 5.508 3.02 10.393 4.797 14.656 1.599 3.376 5.152 6.13 10.66 8.26 4.618 1.954 7.816 3.909 9.592 5.862s2.664 4.619 2.664 7.994c0 9.237-6.929 13.856-20.785 13.856H185.527c-5.329 0-9.592-1.282-12.79-3.857s-4.797-6.003-4.797-10.265c0-3.553.71-6.216 2.133-7.994s4.618-3.996 9.592-6.66c3.553-1.778 6.04-3.732 7.46-5.862 1.421-2.132 2.133-4.797 2.133-7.994 0-3.02-.267-5.685-.8-7.993l-8.528-38.64h-74.347l7.196-31.71h59.691L123.44 356.245l6.662-26.115zm376.535 0v313.111c0 6.93 1.332 11.902 3.996 14.923 1.421 1.777 2.754 2.894 3.997 3.325 1.244.456 5.33 1.56 12.257 3.338 8.528 1.953 12.79 6.839 12.79 14.656 0 4.618-2.309 8.348-6.928 11.192-3.376 2.132-8.972 3.198-16.789 3.198H381.12c-6.396 0-11.332-1.193-14.783-3.603-3.477-2.386-5.203-5.813-5.203-10.253 0-7.284 3.553-12.081 10.66-14.39 5.86-1.952 9.276-3.146 10.252-3.603.977-.432 2.004-1.458 3.07-3.058 2.132-2.842 3.198-7.373 3.198-13.59V378.628c0-6.216-1.065-10.747-3.198-13.59-1.065-1.6-2.094-2.613-3.07-3.071-.977-.432-4.39-1.637-10.253-3.59-7.105-2.31-10.66-7.106-10.66-14.39 0-4.441 1.727-7.854 5.204-10.264 3.45-2.386 8.387-3.59 14.783-3.59h125.511zm22.65 224.374v-28.514c7.639-1.777 13.005-3.641 16.127-5.595 3.096-1.954 5.813-4.974 8.122-9.06 3.731-6.93 5.596-16.255 5.596-27.98V398.08c0-8.349-.621-14.569-1.865-18.653-1.244-4.085-3.731-7.816-7.461-11.192-5.152-4.974-12.081-8.085-20.785-9.328v-28.779c36.596 0 63.6 3.463 81.01 10.393 20.074 7.993 35.974 20.251 47.7 36.774 11.902 16.877 17.854 37.573 17.854 62.09 0 27.358-6.04 49.742-18.12 67.152-12.082 17.233-28.958 29.933-50.631 38.106-17.943 6.575-43.792 9.86-77.546 9.86zm324.568-224.374v313.111c0 6.93 1.332 11.902 3.997 14.923 1.42 1.777 2.753 2.894 3.996 3.325 1.244.456 5.33 1.56 12.257 3.338 8.528 1.953 12.79 6.839 12.79 14.656 0 4.618-2.308 8.348-6.928 11.192-3.376 2.132-8.972 3.198-16.788 3.198H728.339c-6.396 0-11.332-1.193-14.783-3.603-3.477-2.386-5.203-5.813-5.203-10.253 0-7.284 3.553-12.081 10.66-14.39 5.86-1.952 9.276-3.146 10.252-3.603.977-.432 2.004-1.458 3.07-3.058 2.132-2.842 3.198-7.373 3.198-13.59V378.628c0-6.216-1.066-10.747-3.198-13.59-1.065-1.6-2.094-2.613-3.07-3.071-.977-.432-4.39-1.637-10.253-3.59-7.105-2.31-10.659-7.106-10.659-14.39 0-4.441 1.726-7.854 5.203-10.264 3.45-2.386 8.387-3.59 14.783-3.59h125.51zm22.65 224.374v-28.514c7.64-1.777 13.006-3.641 16.128-5.595 3.096-1.954 5.813-4.974 8.122-9.06 3.731-6.93 5.596-16.255 5.596-27.98V398.08c0-8.349-.621-14.569-1.865-18.653-1.243-4.085-3.73-7.816-7.46-11.192-5.152-4.974-12.081-8.085-20.785-9.328v-28.779c36.596 0 63.6 3.463 81.01 10.393 20.075 7.993 35.974 20.251 47.7 36.774 11.902 16.877 17.854 37.573 17.854 62.09 0 27.358-6.04 49.742-18.12 67.152-12.081 17.233-28.958 29.933-50.63 38.106-17.944 6.575-43.794 9.86-77.547 9.86z"/></svg>
