<svg class="icon" viewBox="0 0 1024 1024" xmlns="http://www.w3.org/2000/svg" width="200" height="200">
  <path
    d="M136.533 119.467A34.133 34.133 0 0 0 102.4 153.6v733.867a34.133 34.133 0 0 0 34.133 34.133H870.4a34.133 34.133 0 0 0 34.133-34.133V153.6a34.133 34.133 0 0 0-34.133-34.133H136.533zm0-68.267H870.4a102.4 102.4 0 0 1 102.4 102.4v733.867a102.4 102.4 0 0 1-102.4 102.4H136.533a102.4 102.4 0 0 1-102.4-102.4V153.6a102.4 102.4 0 0 1 102.4-102.4z"/>
  <path
    d="M480.188 245.623h63.59v100.694h209.067v255.01H543.778v196.71h-63.59v-196.71H271.7V346.35h208.487V245.589zm-146.671 295.63h146.67V406.425H333.484v134.826zm210.261 0H691.03V406.425H543.744v134.826z"/>
</svg>
