<svg class="icon" viewBox="0 0 1024 1024" xmlns="http://www.w3.org/2000/svg" width="200" height="200"><path d="M263.484 574.35c-2.958 8.966-4.55 18.569-4.55 28.536v90.976a91.022 91.022 0 0 0 91.022 91.023h91.022A91.022 91.022 0 0 0 532 693.862v-90.976c0-10.013-1.593-19.57-4.551-28.581 135.805 36.318 232.107 127.112 232.107 233.335v68.449a91.022 91.022 0 0 1-91.023 91.022H122.4a91.022 91.022 0 0 1-91.022-91.022V807.64c0-106.223 96.301-197.017 232.106-233.335zM883.62 876.863a90.567 90.567 0 0 0 12.47-46.058v-68.494c0-100.124-90.931-186.595-222.276-226.6 52.565-50.062 85.743-123.653 85.743-205.755 0-49.562-12.106-96.029-33.224-136.079 94.8 7.1 169.757 95.892 169.757 204.345 0 70.77-31.858 133.166-80.418 169.939 126.111 27.306 216.951 103.902 216.951 194.15v69.04a45.511 45.511 0 0 1-45.51 45.512H883.618zM395.467 602.886a45.511 45.511 0 0 1 45.51 45.51v45.512a45.511 45.511 0 1 1-91.021 0v-45.511a45.511 45.511 0 0 1 45.51-45.511zm0-45.511c-125.657 0-227.556-112.049-227.556-250.22 0-138.218 101.9-250.266 227.556-250.266s227.555 112.048 227.555 250.265c0 138.172-101.9 250.22-227.555 250.22z"/></svg>