<svg class="icon" viewBox="0 0 1024 1024" xmlns="http://www.w3.org/2000/svg" width="200" height="200"><path d="M959.063 64.122H61.627C27.833 64.122.44 91.516.44 125.302v642.45c0 33.792 27.393 61.18 61.187 61.18h897.437c33.793 0 61.189-27.387 61.189-61.18v-642.45c-.002-33.785-27.402-61.18-61.19-61.18zm-2.536 573.472H64.17V127.89h892.357v509.703zM382.862 828.933h254.993v63.79H382.862v-63.79zm-127.472 63.79h509.913v63.798H255.39v-63.798zm552.332-713.45c-31.322 0-56.772 25.47-56.772 56.77 0 7.608 1.55 14.865 4.282 21.506l-168.05 156.407c-9.008-6.017-19.8-9.557-31.416-9.557-5.9 0-11.595.964-17.068 2.7L485 339.434c4.01-7.879 6.37-16.532 6.37-25.633 0-31.29-25.46-56.773-56.77-56.773-31.312 0-56.775 25.483-56.775 56.773 0 2.875.532 5.622.947 8.414L243.23 428.498c-8.791-5.562-19.105-8.92-30.273-8.92-31.317 0-56.774 25.476-56.774 56.767 0 31.309 25.456 56.787 56.774 56.787 31.316 0 56.766-25.478 56.766-56.787 0-5.779-1.12-11.265-2.732-16.516l131.061-102.763c.355.293.61.694.964.97 10.05 8.093 22.691 12.558 35.603 12.558a56.602 56.602 0 0 0 21.54-4.247l51.642 65.058c-5.502 8.849-8.808 18.974-8.808 29.767 0 31.31 25.461 56.788 56.772 56.788 31.294 0 56.773-25.478 56.773-56.788 0-5.226-.942-10.185-2.26-14.981l171.729-159.808c7.76 3.996 16.414 6.449 25.726 6.449 31.3 0 56.772-25.477 56.772-56.772 0-31.288-25.471-56.783-56.793-56.783l.01-.005zM212.958 493.78c-9.633 0-17.463-7.824-17.463-17.478 0-9.614 7.83-17.452 17.463-17.452 9.63 0 17.449 7.822 17.449 17.452.017 9.654-7.82 17.478-17.449 17.478zm210.726-166.373c-4.147-3.363-6.547-8.316-6.547-13.621 0-9.614 7.822-17.458 17.45-17.458 9.634 0 17.462 7.829 17.462 17.458 0 4.652-1.805 9.04-5.09 12.325v.016c0 .024 0 0-.023 0-6.913 6.88-19.079 4.621-23.252 1.28zm132.077 151.22c-9.63 0-17.457-7.827-17.457-17.472 0-5.468 2.477-10.482 6.843-13.846.077-.06.205-.076.282-.153l.011-.025c2.15-1.584 5.584-3.434 10.343-3.434 9.618 0 17.456 7.823 17.456 17.457-.017 9.628-7.838 17.471-17.473 17.471h-.005v.002zm251.961-225.138c-9.639 0-17.456-7.817-17.456-17.451 0-9.633 7.817-17.45 17.456-17.45 9.611 0 17.45 7.817 17.45 17.45 0 9.634-7.821 17.451-17.45 17.451zm0 0"/></svg>