<svg class="icon" viewBox="0 0 1024 1024" xmlns="http://www.w3.org/2000/svg" width="200" height="200">
  <path
    d="M210.398 716.8V325.87h289.86v66.117H289.314v86.699h196.267v65.877H289.314v106.36h218.42V716.8H210.431zm587.196 0H722.67V572.28c0-30.584-1.604-50.381-4.779-59.358a41.643 41.643 0 0 0-15.633-20.924 44.578 44.578 0 0 0-26.01-7.475c-12.97 0-24.575 3.55-34.918 10.683-10.308 7.1-17.408 16.52-21.197 28.263-3.823 11.742-5.734 33.45-5.734 65.058V716.8h-74.923V433.596h69.598v41.608c24.713-32.017 55.808-47.991 93.32-47.991 16.555 0 31.642 2.97 45.33 8.909 13.687 5.973 24.064 13.55 31.061 22.8 7.032 9.25 11.947 19.73 14.677 31.472 2.731 11.741 4.13 28.535 4.13 50.415V716.8z"/>
  <path
    d="M136.533 119.467A34.133 34.133 0 0 0 102.4 153.6v733.867a34.133 34.133 0 0 0 34.133 34.133H870.4a34.133 34.133 0 0 0 34.133-34.133V153.6a34.133 34.133 0 0 0-34.133-34.133H136.533zm0-68.267H870.4a102.4 102.4 0 0 1 102.4 102.4v733.867a102.4 102.4 0 0 1-102.4 102.4H136.533a102.4 102.4 0 0 1-102.4-102.4V153.6a102.4 102.4 0 0 1 102.4-102.4z"/>
</svg>
