<svg class="icon" viewBox="0 0 1025 1024" xmlns="http://www.w3.org/2000/svg"><path d="M952.09 209.552L550.086 534.794c-21.41 17.482-56.514 17.482-77.924 0L70.161 209.552C56.47 198.482 32 208.095 32 228.196v567.612c0 27.526 22.575 50.101 50.105 50.101h859.79c27.528 0 50.105-22.575 50.105-50.1V228.195c-.147-22.431-23.742-31.608-39.91-18.644z"/><path d="M133.81 209.552L473.33 484.109c21.412 17.187 56.513 17.187 77.925 0l339.371-274.557c21.41-17.187 16.46-31.461-11.07-31.461H144.883c-27.82.147-32.482 14.274-11.071 31.461z"/></svg>
