<svg class="icon" viewBox="0 0 1024 1024" xmlns="http://www.w3.org/2000/svg" width="200" height="200"><path d="M94.277-4.613zM374.25 252.986c0-91.674-77.22-166.056-172.59-166.056-95.24.066-172.525 74.382-172.525 166.056 0 44.616 18.348 85.14 48.115 115.039-8.117 32.736-12.342 66.792-12.342 101.903 0 157.874 86.395 296.407 216.151 374.026l34.518-136.357c-70.488-56.891-115.368-142.166-115.368-237.6 0-17.358 1.452-34.387 4.355-50.887 94.05-1.585 169.686-75.308 169.686-166.124zm148.039-92.73c59.664 0 115.434 15.576 163.418 42.834-7.59 18.678-11.616 38.94-11.616 60.125 0 91.741 77.22 166.058 172.46 166.058s172.59-74.384 172.59-166.058S941.787 97.158 846.55 97.158c-22.309 0-43.693 4.093-63.164 11.485C709.268 59.01 619.44 29.905 522.288 29.905c-65.735 0-128.238 13.398-184.734 37.422l78.87 110.023c33.131-11.089 68.772-17.094 105.864-17.094zm321.555 323.599c-5.148 112.86-73.195 210.079-171.205 260.042-28.513-53.789-86.659-90.617-153.714-90.617-95.37 0-172.592 74.382-172.592 166.056s77.221 166.123 172.592 166.123c71.478 0 132.99-41.91 158.995-101.575 175.956-61.314 301.62-223.542 301.62-413.888 0-9.768-.395-19.403-1.056-28.974l-134.64 42.833zM94.277-4.613zM374.25 252.986c0-91.674-77.22-166.056-172.59-166.056-95.24.066-172.525 74.382-172.525 166.056 0 44.616 18.348 85.14 48.115 115.039-8.117 32.736-12.342 66.792-12.342 101.903 0 157.874 86.395 296.407 216.151 374.026l34.518-136.357c-70.488-56.891-115.368-142.166-115.368-237.6 0-17.358 1.452-34.387 4.355-50.887 94.05-1.585 169.686-75.308 169.686-166.124zm148.039-92.73c59.664 0 115.434 15.576 163.418 42.834-7.59 18.678-11.616 38.94-11.616 60.125 0 91.741 77.22 166.058 172.46 166.058s172.59-74.384 172.59-166.058S941.787 97.158 846.55 97.158c-22.309 0-43.693 4.093-63.164 11.485C709.268 59.01 619.44 29.905 522.288 29.905c-65.735 0-128.238 13.398-184.734 37.422l78.87 110.023c33.131-11.089 68.772-17.094 105.864-17.094zm321.555 323.599c-5.148 112.86-73.195 210.079-171.205 260.042-28.513-53.789-86.659-90.617-153.714-90.617-95.37 0-172.592 74.382-172.592 166.056s77.221 166.123 172.592 166.123c71.478 0 132.99-41.91 158.995-101.575 175.956-61.314 301.62-223.542 301.62-413.888 0-9.768-.395-19.403-1.056-28.974l-134.64 42.833zM94.277-4.613zM374.25 252.986c0-91.674-77.22-166.056-172.59-166.056-95.24.066-172.525 74.382-172.525 166.056 0 44.616 18.348 85.14 48.115 115.039-8.117 32.736-12.342 66.792-12.342 101.903 0 157.874 86.395 296.407 216.151 374.026l34.518-136.357c-70.488-56.891-115.368-142.166-115.368-237.6 0-17.358 1.452-34.387 4.355-50.887 94.05-1.585 169.686-75.308 169.686-166.124zm148.039-92.73c59.664 0 115.434 15.576 163.418 42.834-7.59 18.678-11.616 38.94-11.616 60.125 0 91.741 77.22 166.058 172.46 166.058s172.59-74.384 172.59-166.058S941.787 97.158 846.55 97.158c-22.309 0-43.693 4.093-63.164 11.485C709.268 59.01 619.44 29.905 522.288 29.905c-65.735 0-128.238 13.398-184.734 37.422l78.87 110.023c33.131-11.089 68.772-17.094 105.864-17.094zm321.555 323.599c-5.148 112.86-73.195 210.079-171.205 260.042-28.513-53.789-86.659-90.617-153.714-90.617-95.37 0-172.592 74.382-172.592 166.056s77.221 166.123 172.592 166.123c71.478 0 132.99-41.91 158.995-101.575 175.956-61.314 301.62-223.542 301.62-413.888 0-9.768-.395-19.403-1.056-28.974l-134.64 42.833z"/></svg>