<svg class="icon" viewBox="0 0 1024 1024" xmlns="http://www.w3.org/2000/svg" width="200" height="200"><path d="M617.39.416H393.797c-27.426 0-49.352 24.405-49.352 54.564 0 30.227 21.963 54.704 49.352 54.704h224.979c26.043 0 48.002-24.476 48.002-54.704C666.783 24.815 644.852.416 617.39.416zm242.787 36.417H748.831c1.133 5.975 1.785 12.024 1.785 18.146.034 45.922-33.28 91.126-72.912 91.126H335.637c-41.712 0-75.07-45.204-75.07-91.126.039-6.122.692-12.171 1.824-18.146H149.7c-90.58 0-112.839 51.352-112.839 125.436v733.833c0 79.582 31.867 124.124 119.68 124.124h696.785c87.816 0 130.502-34.924 130.502-124.084V162.27c.005-74.078-39.96-125.43-123.652-125.43v-.007h.001zM745.778 761.379H261.585c-17.847 0-35.661-21.892-35.661-39.767 0-17.814 15.076-33.077 32.925-33.077h482.813c17.842 0 32.919 13.871 34.276 33.077 0 17.88-12.317 39.767-30.16 39.767zm1.971-194.306H263.546c-17.848 0-29.213-19.187-29.213-37.076 0-17.882 15.088-35.764 32.93-35.764h482.814c17.847 0 32.924 16.569 34.27 35.764 0 17.883-18.789 37.076-36.598 37.076zm0-199.555H263.546c-17.848 0-29.213-19.2-29.213-37.08 0-17.883 15.088-35.764 32.93-35.764h482.814c17.847 0 32.924 16.575 34.27 35.764 0 17.88-18.789 37.08-36.598 37.08zm0 0"/></svg>