<svg class="icon" viewBox="0 0 1024 1024" xmlns="http://www.w3.org/2000/svg" width="200" height="200"><path d="M853.335 1024H170.668a137.813 137.813 0 0 1-128-145.067v-537.6A213.333 213.333 0 0 1 213.335 0h597.333a213.333 213.333 0 0 1 170.667 341.333v537.6a137.813 137.813 0 0 1-128 145.067zm-128-85.333h128c23.04 0 42.666-27.307 42.666-59.734V409.6a210.773 210.773 0 0 1-85.333 17.067 213.333 213.333 0 0 1-149.333-61.014 213.333 213.333 0 0 1-298.667 0 213.333 213.333 0 0 1-149.333 61.014A210.773 210.773 0 0 1 128 408.747V878.08c0 32.427 19.627 59.733 42.667 59.733h128v-212.48a128 128 0 0 1 128-128h170.667a128 128 0 0 1 128 128zm-341.334 0h256V725.333a42.667 42.667 0 0 0-42.666-42.666H426.668A42.667 42.667 0 0 0 384 725.333zM661.335 253.44a42.667 42.667 0 0 1 37.12 21.76 128 128 0 0 0 112.213 66.133 128 128 0 0 0 89.173-36.266 42.667 42.667 0 0 1 15.36-17.92 128 128 0 0 0 23.467-73.814 128 128 0 0 0-128-128H213.335A128 128 0 1 0 325.548 275.2a42.667 42.667 0 0 1 74.24 0 128 128 0 0 0 224.427 0 42.667 42.667 0 0 1 37.12-21.76z"/></svg>
