<svg class="icon" viewBox="0 0 1024 1024" xmlns="http://www.w3.org/2000/svg" width="200" height="200"><path d="M512 25.6c268.62 0 486.4 217.78 486.4 486.4 0 153.856-71.424 291.02-182.938 380.16l-62.464-81.178A383.258 383.258 0 0 0 896 512c0-212.07-171.93-384-384-384S128 299.93 128 512c0 120.806 55.782 228.582 143.002 298.982l-62.439 81.178C97.05 803.046 25.6 665.856 25.6 512 25.6 243.38 243.38 25.6 512 25.6zm0 204.8c155.52 0 281.6 126.08 281.6 281.6 0 87.731-40.14 166.118-103.04 217.754l-62.49-81.23a179.2 179.2 0 1 0-232.14 0l-62.464 81.255A281.037 281.037 0 0 1 230.4 512c0-155.52 126.08-281.6 281.6-281.6z"/><path d="M512 665.6l256 332.8H256l256-332.8zm0-230.4a76.8 76.8 0 1 1 0 153.6 76.8 76.8 0 0 1 0-153.6z"/></svg>
