<svg class="icon" viewBox="0 0 1024 1024" xmlns="http://www.w3.org/2000/svg" width="200" height="200">
  <path
    d="M511.102 33.512c-263.459 0-477.035 213.576-477.035 477.034S247.643 987.58 511.102 987.58s477.034-213.575 477.034-477.034S774.56 33.512 511.102 33.512zm0 921.733c-245.601 0-444.7-199.099-444.7-444.7s199.099-444.7 444.7-444.7c245.6 0 444.7 199.099 444.7 444.7-.001 245.601-199.1 444.7-444.7 444.7z"/>
  <path
    d="M532.526 115.05v374.072h374.072c0-206.595-167.478-374.072-374.072-374.072zm-42.85 0c-206.593 0-374.07 167.477-374.07 374.072h374.07V115.05zm42.85 416.92v374.071c206.594 0 374.072-167.477 374.072-374.07H532.526zm-416.92 0c0 206.594 167.477 374.071 374.07 374.071v-374.07h-374.07z"/>
</svg>
