<?xml version="1.0" encoding="UTF-8" standalone="no"?>
<!DOCTYPE svg PUBLIC "-//W3C//DTD SVG 1.1//EN" "http://www.w3.org/Graphics/SVG/1.1/DTD/svg11.dtd">
<svg width="100%" height="100%" viewBox="0 0 36 36" version="1.1" xmlns="http://www.w3.org/2000/svg" xmlns:xlink="http://www.w3.org/1999/xlink" xml:space="preserve" xmlns:serif="http://www.serif.com/" style="fill-rule:evenodd;clip-rule:evenodd;stroke-linejoin:round;stroke-miterlimit:2;">
    <g transform="matrix(1,0,0,1,-2985.77,-4451.97)">
        <g id="dec_03" transform="matrix(0.480248,0.307635,-0.307635,0.480248,3237.25,2170.33)">
            <path d="M1855.91,3602.85C1855.91,3595.62 1850.03,3589.74 1842.8,3589.74L1816.59,3589.74C1809.36,3589.74 1803.49,3595.62 1803.49,3602.85L1803.49,3629.06C1803.49,3636.29 1809.36,3642.16 1816.59,3642.16L1842.8,3642.16C1850.03,3642.16 1855.91,3636.29 1855.91,3629.06L1855.91,3602.85Z" style="fill:rgb(152,214,255);"/>
            <path d="M1855.91,3602.85C1855.91,3595.62 1850.03,3589.74 1842.8,3589.74L1816.59,3589.74C1809.36,3589.74 1803.49,3595.62 1803.49,3602.85L1803.49,3629.06C1803.49,3636.29 1809.36,3642.16 1816.59,3642.16L1842.8,3642.16C1850.03,3642.16 1855.91,3636.29 1855.91,3629.06L1855.91,3602.85ZM1850.78,3602.85L1850.78,3629.06C1850.78,3633.46 1847.2,3637.04 1842.8,3637.04L1816.59,3637.04C1812.19,3637.04 1808.61,3633.46 1808.61,3629.06L1808.61,3602.85C1808.61,3598.44 1812.19,3594.87 1816.59,3594.87L1842.8,3594.87C1847.2,3594.87 1850.78,3598.44 1850.78,3602.85Z" style="fill:white;"/>
        </g>
    </g>
</svg>
