<?xml version="1.0" encoding="UTF-8" standalone="no"?>
<!DOCTYPE svg PUBLIC "-//W3C//DTD SVG 1.1//EN" "http://www.w3.org/Graphics/SVG/1.1/DTD/svg11.dtd">
<svg width="100%" height="100%" viewBox="0 0 161 126" version="1.1" xmlns="http://www.w3.org/2000/svg" xmlns:xlink="http://www.w3.org/1999/xlink" xml:space="preserve" xmlns:serif="http://www.serif.com/" style="fill-rule:evenodd;clip-rule:evenodd;stroke-linejoin:round;stroke-miterlimit:2;">
    <g transform="matrix(1,0,0,1,-1729.7,-4498.97)">
        <g id="dec_02">
            <g transform="matrix(1.03822,0,0,1.03822,-1255.97,769.29)">
                <circle cx="2891.33" cy="3607.95" r="15.553" style="fill:rgb(234,231,255);"/>
                <path d="M2891.33,3592.39C2899.91,3592.39 2906.88,3599.36 2906.88,3607.95C2906.88,3616.53 2899.91,3623.5 2891.33,3623.5C2882.74,3623.5 2875.77,3616.53 2875.77,3607.95C2875.77,3599.36 2882.74,3592.39 2891.33,3592.39ZM2891.33,3596.11C2897.86,3596.11 2903.16,3601.41 2903.16,3607.95C2903.16,3614.48 2897.86,3619.78 2891.33,3619.78C2884.79,3619.78 2879.49,3614.48 2879.49,3607.95C2879.49,3601.41 2884.79,3596.11 2891.33,3596.11Z" style="fill:white;"/>
            </g>
            <g transform="matrix(0.781718,0.623632,-0.623632,0.781718,3220.15,53.1347)">
                <path d="M1757.65,4359.22C1759.05,4356.43 1761.9,4354.67 1765.02,4354.67C1768.14,4354.67 1770.99,4356.43 1772.38,4359.22C1778.54,4371.53 1787.2,4388.86 1792.93,4400.32C1794.21,4402.87 1794.07,4405.9 1792.57,4408.33C1791.07,4410.76 1788.42,4412.23 1785.56,4412.23C1773.67,4412.23 1756.36,4412.23 1744.47,4412.23C1741.62,4412.23 1738.97,4410.76 1737.47,4408.33C1735.97,4405.9 1735.83,4402.87 1737.11,4400.32C1742.83,4388.86 1751.5,4371.53 1757.65,4359.22Z" style="fill:rgb(146,238,255);"/>
                <path d="M1757.65,4359.22C1759.05,4356.43 1761.9,4354.67 1765.02,4354.67C1768.14,4354.67 1770.99,4356.43 1772.38,4359.22C1778.54,4371.53 1787.2,4388.86 1792.93,4400.32C1794.21,4402.87 1794.07,4405.9 1792.57,4408.33C1791.07,4410.76 1788.42,4412.23 1785.56,4412.23C1773.67,4412.23 1756.36,4412.23 1744.47,4412.23C1741.62,4412.23 1738.97,4410.76 1737.47,4408.33C1735.97,4405.9 1735.83,4402.87 1737.11,4400.32C1742.83,4388.86 1751.5,4371.53 1757.65,4359.22ZM1762.04,4361.42C1762.61,4360.29 1763.76,4359.58 1765.02,4359.58C1766.28,4359.58 1767.43,4360.29 1767.99,4361.42C1774.15,4373.73 1782.81,4391.06 1788.54,4402.51C1789.05,4403.54 1789,4404.77 1788.39,4405.75C1787.79,4406.73 1786.72,4407.32 1785.56,4407.32C1773.67,4407.32 1756.36,4407.32 1744.47,4407.32C1743.32,4407.32 1742.25,4406.73 1741.64,4405.75C1741.04,4404.77 1740.98,4403.54 1741.5,4402.51L1762.04,4361.42Z" style="fill:white;"/>
            </g>
        </g>
    </g>
</svg>
