<?xml version="1.0" encoding="UTF-8" standalone="no"?>
<!DOCTYPE svg PUBLIC "-//W3C//DTD SVG 1.1//EN" "http://www.w3.org/Graphics/SVG/1.1/DTD/svg11.dtd">
<svg width="100%" height="100%" viewBox="0 0 78 89" version="1.1" xmlns="http://www.w3.org/2000/svg" xmlns:xlink="http://www.w3.org/1999/xlink" xml:space="preserve" xmlns:serif="http://www.serif.com/" style="fill-rule:evenodd;clip-rule:evenodd;stroke-linejoin:round;stroke-miterlimit:2;">
    <g transform="matrix(1,0,0,1,-2888.23,-3589.74)">
        <g id="dec_01">
            <g transform="matrix(1,0,0,1,12.4516,-2.65136)">
                <circle cx="2891.33" cy="3607.95" r="15.553" style="fill:rgb(185,255,146);"/>
                <path d="M2891.33,3592.39C2899.91,3592.39 2906.88,3599.36 2906.88,3607.95C2906.88,3616.53 2899.91,3623.5 2891.33,3623.5C2882.74,3623.5 2875.77,3616.53 2875.77,3607.95C2875.77,3599.36 2882.74,3592.39 2891.33,3592.39ZM2891.33,3596.11C2897.86,3596.11 2903.16,3601.41 2903.16,3607.95C2903.16,3614.48 2897.86,3619.78 2891.33,3619.78C2884.79,3619.78 2879.49,3614.48 2879.49,3607.95C2879.49,3601.41 2884.79,3596.11 2891.33,3596.11Z" style="fill:white;"/>
            </g>
            <g transform="matrix(1.4774,0,0,1.4774,-1329.35,-1675.28)">
                <circle cx="2891.33" cy="3607.95" r="15.553" style="fill:rgb(255,241,182);"/>
                <path d="M2891.33,3592.39C2899.91,3592.39 2906.88,3599.36 2906.88,3607.95C2906.88,3616.53 2899.91,3623.5 2891.33,3623.5C2882.74,3623.5 2875.77,3616.53 2875.77,3607.95C2875.77,3599.36 2882.74,3592.39 2891.33,3592.39ZM2891.33,3596.11C2897.86,3596.11 2903.16,3601.41 2903.16,3607.95C2903.16,3614.48 2897.86,3619.78 2891.33,3619.78C2884.79,3619.78 2879.49,3614.48 2879.49,3607.95C2879.49,3601.41 2884.79,3596.11 2891.33,3596.11Z" style="fill:white;"/>
            </g>
        </g>
    </g>
</svg>
